<svg width="28" height="28" viewBox="0 0 28 28" fill="none" xmlns="http://www.w3.org/2000/svg">
<g clip-path="url(#clip0_64_13566)">
<path d="M21.3497 6.66188C20.8947 6.20688 20.1597 6.20688 19.7047 6.66188L13.9997 12.3552L8.29472 6.65021C7.83972 6.19521 7.10472 6.19521 6.64972 6.65021C6.19472 7.10521 6.19472 7.84021 6.64972 8.29521L12.3547 14.0002L6.64972 19.7052C6.19472 20.1602 6.19472 20.8952 6.64972 21.3502C7.10472 21.8052 7.83972 21.8052 8.29472 21.3502L13.9997 15.6452L19.7047 21.3502C20.1597 21.8052 20.8947 21.8052 21.3497 21.3502C21.8047 20.8952 21.8047 20.1602 21.3497 19.7052L15.6447 14.0002L21.3497 8.29521C21.7931 7.85188 21.7931 7.10521 21.3497 6.66188V6.66188Z" fill="#262626"/>
</g>
<defs>
<clipPath id="clip0_64_13566">
<rect width="28" height="28" fill="white"/>
</clipPath>
</defs>
</svg>
