<svg width="17" height="17" viewBox="0 0 17 17" fill="none" xmlns="http://www.w3.org/2000/svg">
<path d="M14.271 1.83801H9.30825C8.93684 1.83809 8.58067 1.9857 8.31808 2.24837L2.08156 8.48488C1.81901 8.74752 1.67151 9.10368 1.67151 9.47505C1.67151 9.84642 1.81901 10.2026 2.08156 10.4652L7.0436 15.4273C7.30624 15.6898 7.66241 15.8373 8.03377 15.8373C8.40514 15.8373 8.7613 15.6898 9.02394 15.4273L15.2605 9.19074C15.5238 8.92885 15.6715 8.57241 15.6715 8.20128V3.23853C15.6715 2.86709 15.524 2.51086 15.2613 2.24822C14.9987 1.98557 14.6424 1.83801 14.271 1.83801ZM12.1751 6.73493C11.9886 6.73915 11.8031 6.70606 11.6296 6.63762C11.456 6.56917 11.2979 6.46674 11.1645 6.33634C11.0311 6.20594 10.9251 6.05021 10.8527 5.87827C10.7803 5.70634 10.743 5.52167 10.7429 5.33512C10.7429 5.14857 10.7801 4.96388 10.8524 4.79191C10.9247 4.61994 11.0307 4.46415 11.164 4.33369C11.2974 4.20322 11.4554 4.10071 11.6289 4.03218C11.8024 3.96365 11.9879 3.93047 12.1744 3.93459C12.5403 3.94268 12.8886 4.09371 13.1445 4.35533C13.4005 4.61696 13.5439 4.9684 13.544 5.33442C13.5441 5.70044 13.4009 6.05195 13.145 6.3137C12.8892 6.57546 12.541 6.72666 12.1751 6.73493Z" fill="#40464C"/>
</svg>
