<svg width="16" height="17" viewBox="0 0 16 17" fill="none" xmlns="http://www.w3.org/2000/svg">
<path d="M15.3497 1.14827C14.8947 0.693266 14.1597 0.693266 13.7047 1.14827L7.99968 6.8416L2.29468 1.1366C1.83968 0.681599 1.10468 0.681599 0.649676 1.1366C0.194676 1.5916 0.194676 2.3266 0.649676 2.7816L6.35468 8.4866L0.649676 14.1916C0.194676 14.6466 0.194676 15.3816 0.649676 15.8366C1.10468 16.2916 1.83968 16.2916 2.29468 15.8366L7.99968 10.1316L13.7047 15.8366C14.1597 16.2916 14.8947 16.2916 15.3497 15.8366C15.8047 15.3816 15.8047 14.6466 15.3497 14.1916L9.64467 8.4866L15.3497 2.7816C15.793 2.33827 15.793 1.5916 15.3497 1.14827Z" fill="#262626"/>
</svg>
