<svg width="12" height="15" viewBox="0 0 12 15" fill="none" xmlns="http://www.w3.org/2000/svg">
<path d="M9.99996 4.83332H9.33329V3.49999C9.33329 1.65999 7.83996 0.166656 5.99996 0.166656C4.15996 0.166656 2.66663 1.65999 2.66663 3.49999V4.83332H1.99996C1.26663 4.83332 0.666626 5.43332 0.666626 6.16666V12.8333C0.666626 13.5667 1.26663 14.1667 1.99996 14.1667H9.99996C10.7333 14.1667 11.3333 13.5667 11.3333 12.8333V6.16666C11.3333 5.43332 10.7333 4.83332 9.99996 4.83332ZM5.99996 10.8333C5.26663 10.8333 4.66663 10.2333 4.66663 9.49999C4.66663 8.76666 5.26663 8.16666 5.99996 8.16666C6.73329 8.16666 7.33329 8.76666 7.33329 9.49999C7.33329 10.2333 6.73329 10.8333 5.99996 10.8333ZM8.06663 4.83332H3.93329V3.49999C3.93329 2.35999 4.85996 1.43332 5.99996 1.43332C7.13996 1.43332 8.06663 2.35999 8.06663 3.49999V4.83332Z" fill="#40464C"/>
</svg>
