<svg width="20" height="20" viewBox="0 0 20 20" fill="none" xmlns="http://www.w3.org/2000/svg">
<path d="M9.99998 5.83337C7.69998 5.83337 5.83331 7.70004 5.83331 10C5.83331 12.3 7.69998 14.1667 9.99998 14.1667C12.3 14.1667 14.1666 12.3 14.1666 10C14.1666 7.70004 12.3 5.83337 9.99998 5.83337ZM1.66665 10.8334H3.33331C3.79165 10.8334 4.16665 10.4584 4.16665 10C4.16665 9.54171 3.79165 9.16671 3.33331 9.16671H1.66665C1.20831 9.16671 0.833313 9.54171 0.833313 10C0.833313 10.4584 1.20831 10.8334 1.66665 10.8334ZM16.6666 10.8334H18.3333C18.7916 10.8334 19.1666 10.4584 19.1666 10C19.1666 9.54171 18.7916 9.16671 18.3333 9.16671H16.6666C16.2083 9.16671 15.8333 9.54171 15.8333 10C15.8333 10.4584 16.2083 10.8334 16.6666 10.8334ZM9.16665 1.66671V3.33337C9.16665 3.79171 9.54165 4.16671 9.99998 4.16671C10.4583 4.16671 10.8333 3.79171 10.8333 3.33337V1.66671C10.8333 1.20837 10.4583 0.833374 9.99998 0.833374C9.54165 0.833374 9.16665 1.20837 9.16665 1.66671ZM9.16665 16.6667V18.3334C9.16665 18.7917 9.54165 19.1667 9.99998 19.1667C10.4583 19.1667 10.8333 18.7917 10.8333 18.3334V16.6667C10.8333 16.2084 10.4583 15.8334 9.99998 15.8334C9.54165 15.8334 9.16665 16.2084 9.16665 16.6667ZM4.99165 3.81671C4.66665 3.49171 4.13331 3.49171 3.81665 3.81671C3.49165 4.14171 3.49165 4.67504 3.81665 4.99171L4.69998 5.87504C5.02498 6.20004 5.55831 6.20004 5.87498 5.87504C6.19165 5.55004 6.19998 5.01671 5.87498 4.70004L4.99165 3.81671ZM15.3 14.125C14.975 13.8 14.4416 13.8 14.125 14.125C13.8 14.45 13.8 14.9834 14.125 15.3L15.0083 16.1834C15.3333 16.5084 15.8666 16.5084 16.1833 16.1834C16.5083 15.8584 16.5083 15.325 16.1833 15.0084L15.3 14.125ZM16.1833 4.99171C16.5083 4.66671 16.5083 4.13337 16.1833 3.81671C15.8583 3.49171 15.325 3.49171 15.0083 3.81671L14.125 4.70004C13.8 5.02504 13.8 5.55837 14.125 5.87504C14.45 6.19171 14.9833 6.20004 15.3 5.87504L16.1833 4.99171ZM5.87498 15.3C6.19998 14.975 6.19998 14.4417 5.87498 14.125C5.54998 13.8 5.01665 13.8 4.69998 14.125L3.81665 15.0084C3.49165 15.3334 3.49165 15.8667 3.81665 16.1834C4.14165 16.5 4.67498 16.5084 4.99165 16.1834L5.87498 15.3Z" fill="black" fill-opacity="0.87"/>
</svg>
